<svg xmlns="http://www.w3.org/2000/svg" viewBox="0 0 64 64" role="img" aria-labelledby="title">
  <title>DI portfolio logo</title>
  <defs>
    <linearGradient id="bg" x1="10" y1="8" x2="54" y2="56" gradientUnits="userSpaceOnUse">
      <stop stop-color="#2563eb"/>
      <stop offset="1" stop-color="#14b8a6"/>
    </linearGradient>
    <linearGradient id="ridge" x1="14" y1="44" x2="50" y2="28" gradientUnits="userSpaceOnUse">
      <stop stop-color="#ffffff" stop-opacity=".96"/>
      <stop offset="1" stop-color="#dbeafe" stop-opacity=".92"/>
    </linearGradient>
  </defs>
  <rect width="64" height="64" rx="18" fill="#101828"/>
  <circle cx="32" cy="32" r="26" fill="url(#bg)"/>
  <path d="M9 43 23 26l8 10 8-14 16 21H9Z" fill="url(#ridge)"/>
  <path d="m23 26 5 6-5-1-5 6-3-2 8-9Zm16-4 5 7-6-2-6 8-3-3 10-10Z" fill="#ffffff" opacity=".68"/>
  <path d="M15 45h34" stroke="#101828" stroke-opacity=".22" stroke-width="3" stroke-linecap="round"/>
  <rect x="19" y="37" width="26" height="15" rx="7.5" fill="#101828" fill-opacity=".9"/>
  <rect x="20" y="38" width="24" height="13" rx="6.5" fill="none" stroke="#ffffff" stroke-opacity=".18"/>
  <text x="32" y="48" text-anchor="middle" font-family="Arial, Helvetica, sans-serif" font-size="12" font-weight="900" fill="#ffffff" letter-spacing=".4">DI</text>
</svg>
